<?xml version="1.0" encoding="UTF-8"?>
<svg version="1.1" xmlns="http://www.w3.org/2000/svg" width="96" height="96">
<path d="M0 0 C4.69445771 1.04321283 8.25529212 3.01951822 12 6 C12.62213379 7.07713257 12.62213379 7.07713257 13.25683594 8.17602539 C14.93029165 11.03989826 16.39725113 12.9204219 19 15 C24.44710407 16.20022213 29.76159617 16.04086245 35.3125 15.875 C37.52764906 15.84133877 39.74192394 15.82043353 41.95732117 15.81497192 C43.95400508 15.80516293 45.95040913 15.75873548 47.9465332 15.71044922 C48.95417725 15.80600098 49.96182129 15.90155273 51 16 C53.37721332 19.56581999 53.10261716 20.26104818 52.3125 24.3125 C50.03255195 35.23904347 43.254896 44.72316459 34 51 C26.01586739 55.30342523 18.82523243 56.30333074 9.96508789 56.48242188 C4.50227919 56.69672296 1.69864259 57.81532353 -2.23046875 61.49609375 C-5.2798491 64.08773047 -9.08551925 65.31284263 -13 66 C-14.485 65.505 -14.485 65.505 -16 65 C-16.17399418 54.4830185 -16.17399418 54.4830185 -15.1875 49.625 C-15.0946875 47.830625 -15.0946875 47.830625 -15 46 C-17.22847788 43.52056045 -17.22847788 43.52056045 -20 41 C-21.57695445 37.7506703 -22.81490642 34.40962678 -24 31 C-24.99 31.33 -25.98 31.66 -27 32 C-30.625 32.125 -30.625 32.125 -34 32 C-35 31 -35 31 -35.375 28.75 C-35 26 -35 26 -32.52734375 23.84765625 C-29.19855911 20.09698546 -29.2264929 17.53561718 -29.1875 12.6875 C-29.16236328 11.94693359 -29.13722656 11.20636719 -29.11132812 10.44335938 C-29.05281557 8.62947031 -29.02345651 6.81468097 -29 5 C-27.68 4.67 -26.36 4.34 -25 4 C-20.47583085 9.47662582 -18.94502662 13.98987717 -18 21 C-17.41992188 20.855625 -16.83984375 20.71125 -16.2421875 20.5625 C-15.46101563 20.376875 -14.67984375 20.19125 -13.875 20 C-13.10929687 19.814375 -12.34359375 19.62875 -11.5546875 19.4375 C-8.66526648 18.9426756 -5.92602801 18.93215008 -3 19 C-3.05220703 17.19402344 -3.05220703 17.19402344 -3.10546875 15.3515625 C-3.1336028 13.77605558 -3.16090337 12.20053362 -3.1875 10.625 C-3.21263672 9.8309375 -3.23777344 9.036875 -3.26367188 8.21875 C-3.29004405 6.14413852 -3.15486462 4.06899135 -3 2 C-2.01 1.34 -1.02 0.68 0 0 Z M24 26 C24 29 24 29 24 29 Z M-4.2890625 45.44921875 C-4.72992188 46.18785156 -5.17078125 46.92648438 -5.625 47.6875 C-6.09164063 48.43386719 -6.55828125 49.18023437 -7.0390625 49.94921875 C-8.21215065 52.07530176 -8.21215065 52.07530176 -8 55 C-3.25957536 53.66675557 -0.47778524 50.8349088 2.9375 47.4609375 C5.46946977 45.66745891 6.96317976 45.7152981 10 46 C10.33 46.99 10.66 47.98 11 49 C19.42222329 49.43060991 27.87464181 46.18933324 34.3125 40.75 C37.11648882 38.52165998 37.11648882 38.52165998 37 37 C33.05342109 36.84989606 29.10798201 36.74198101 25.15917969 36.67041016 C23.16802472 36.62596047 21.17766201 36.54965657 19.1875 36.47265625 C9.25010321 36.32208963 2.60232284 38.07567163 -4.2890625 45.44921875 Z " fill="#010101" transform="translate(38,15)"/>
</svg>
